<?xml version="1.0" standalone="no"?>
<!DOCTYPE svg PUBLIC "-//W3C//DTD SVG 1.1//EN" "http://www.w3.org/Graphics/SVG/1.1/DTD/svg11.dtd" >
<svg xmlns="http://www.w3.org/2000/svg">
<metadata></metadata>
<defs>
<font id="poyntertextregular" horiz-adv-x="512" >
<font-face units-per-em="2048" ascent="1597" descent="-451" />
<missing-glyph horiz-adv-x="500" />
<glyph horiz-adv-x="0" />
<glyph unicode="&#xd;" />
<glyph unicode=" " />
<glyph unicode="!" horiz-adv-x="552" d="M195 0v170h163v-170h-163zM203 1444h147l-28 -1100h-91z" />
<glyph unicode="&#x22;" horiz-adv-x="870" d="M172 1444h168l-45 -371h-78zM530 1444h168l-45 -371h-78z" />
<glyph unicode="#" horiz-adv-x="1433" d="M98 397v103h256l97 444h-265v103h287l88 401h107l-88 -401h415l88 401h107l-88 -401h233v-103h-256l-96 -444h264v-103h-286l-89 -401h-106l88 401h-416l-88 -401h-106l88 401h-234zM461 500h416l96 444h-416z" />
<glyph unicode="$" horiz-adv-x="1167" d="M82 186l72 90q78 -68 168 -115.5t206 -58.5v603q-102 33 -177 67.5t-125 79.5t-74.5 103.5t-24.5 138.5q0 68 26.5 128t78 107t126 77t170.5 36v155h101v-155q129 -10 228 -58.5t167 -115.5l-72 -90q-72 66 -146.5 108.5t-176.5 52.5v-553q102 -31 182 -67.5t134 -83.5 t83 -108.5t29 -143.5q0 -88 -33 -156.5t-90 -117t-136 -75t-169 -32.5v-207h-101v207q-147 10 -257.5 61.5t-188.5 122.5zM250 1108q0 -57 14.5 -99t46 -75t85 -60.5t132.5 -54.5v524q-139 -10 -208.5 -74.5t-69.5 -160.5zM629 102q154 8 229.5 78t75.5 189q0 55 -14.5 98 t-49 79t-94 66.5t-147.5 59.5v-570z" />
<glyph unicode="%" horiz-adv-x="1925" d="M135 1026q0 94 23.5 172t65.5 135.5t102.5 89t134.5 31.5q150 0 236.5 -111.5t86.5 -310.5q0 -94 -23.5 -173t-65.5 -135t-102.5 -88t-133.5 -32q-150 0 -237 111.5t-87 310.5zM246 1030q0 -152 55 -238.5t160 -86.5q51 0 91 24.5t66.5 67.5t41 102t14.5 129 q0 152 -55.5 239t-159.5 87q-51 0 -91 -24.5t-67 -67.5t-41 -102.5t-14 -129.5zM438 -4l934 1452h115l-934 -1452h-115zM1141 412q0 94 23.5 172t65.5 135t102.5 89t133.5 32q150 0 237 -111.5t87 -310.5q0 -94 -23.5 -173t-65.5 -135.5t-102.5 -88t-134.5 -31.5 q-150 0 -236.5 111.5t-86.5 310.5zM1251 416q0 -152 55.5 -239t159.5 -87q51 0 91 24.5t67 67.5t41 102.5t14 129.5q0 152 -55 238.5t-160 86.5q-51 0 -91 -24.5t-66.5 -67.5t-41 -102.5t-14.5 -128.5z" />
<glyph unicode="&#x26;" horiz-adv-x="1429" d="M96 350q0 260 359 434q-53 80 -86 167t-33 190q0 63 24.5 121.5t68.5 103.5t105.5 71.5t137.5 26.5q72 0 131 -21.5t101 -60.5t65.5 -93t23.5 -118q0 -125 -96 -224t-283 -185q53 -72 96.5 -129.5t85.5 -108.5t86 -100t97 -107q72 90 121 200t76 233l102 -37 q-29 -129 -86 -249t-141 -218q92 -88 175 -125t181 -43l-45 -90q-94 0 -187.5 41t-197.5 137q-90 -84 -197.5 -132t-230.5 -48q-104 0 -188.5 25.5t-142.5 72.5t-90 114.5t-32 151.5zM225 356q0 -133 94.5 -198.5t245.5 -65.5q96 0 181 38t157 106q-55 55 -103 108 t-94.5 109.5t-95.5 120t-104 139.5q-141 -72 -211 -156t-70 -201zM461 1149q0 -86 24.5 -162t77.5 -156q152 70 228.5 151t76.5 185q0 94 -53 145.5t-145 51.5q-51 0 -90 -17.5t-66 -47t-40 -68.5t-13 -82z" />
<glyph unicode="'" d="M172 1444h168l-45 -371h-78z" />
<glyph unicode="(" horiz-adv-x="778" d="M131 637q0 274 133 487t379 396l59 -74q-207 -160 -324.5 -360.5t-117.5 -448.5t118 -448.5t324 -360.5l-59 -74q-246 182 -379 395t-133 488z" />
<glyph unicode=")" horiz-adv-x="778" d="M76 -172q207 160 324.5 360.5t117.5 448.5t-117.5 448.5t-324.5 360.5l59 74q246 -182 379 -395.5t133 -487.5t-133 -487t-379 -396z" />
<glyph unicode="*" horiz-adv-x="983" d="M127 870l268 187l-268 186l23 39l292 -143l27 325h45l27 -325l293 143l22 -39l-268 -186l268 -187l-22 -39l-293 144l-27 -326h-45l-27 326l-292 -144z" />
<glyph unicode="+" horiz-adv-x="1290" d="M139 668v102h453v449h106v-449h453v-102h-453v-449h-106v449h-453z" />
<glyph unicode="," d="M176 -193l62 193h-60v178h156v-158l-84 -213h-74z" />
<glyph unicode="-" horiz-adv-x="675" d="M141 537v120h394v-120h-394z" />
<glyph unicode="." d="M178 0v178h156v-178h-156z" />
<glyph unicode="/" horiz-adv-x="901" d="M-47 -164l835 1692h119l-835 -1692h-119z" />
<glyph unicode="0" horiz-adv-x="1335" d="M115 721q0 139 31.5 273t98 238.5t171 168t252.5 63.5q147 0 251.5 -64.5t171 -169t98.5 -237.5t32 -270q0 -139 -32 -273.5t-98.5 -239t-171 -167.5t-251.5 -63t-252 63t-171.5 167.5t-98 238t-31.5 272.5zM246 723q0 -160 30.5 -278.5t86 -197.5t133 -119t172.5 -40 q94 0 172 39t133 118t86 197.5t31 278.5t-31 278.5t-86 197.5t-133 119t-172 40t-172 -39t-133.5 -118t-86 -197.5t-30.5 -278.5z" />
<glyph unicode="1" horiz-adv-x="839" d="M119 0v102h270v1201l-270 -78v69l295 154h102v-1346h264v-102h-661z" />
<glyph unicode="2" horiz-adv-x="1167" d="M115 0v109l530 544q113 115 175.5 210t62.5 206q0 127 -76 206t-227 79q-55 0 -101.5 -12.5t-89.5 -34t-85 -52t-89 -67.5l-76 88q98 82 202.5 135t242.5 53q111 0 191.5 -28.5t135 -80.5t80 -123t25.5 -157q0 -63 -16.5 -119.5t-51.5 -116t-92 -127t-139 -149.5 l-451 -454h774v-109h-925z" />
<glyph unicode="3" horiz-adv-x="1167" d="M80 164l70 94q96 -80 194 -125t225 -45q147 0 242.5 75t95.5 220q0 168 -108.5 240.5t-325.5 72.5h-67v109h79q379 0 379 299q0 111 -75.5 181.5t-229.5 70.5q-109 0 -194.5 -36t-178.5 -106l-55 95q94 68 195.5 111.5t234.5 43.5q117 0 199 -30.5t134 -80.5t76.5 -113.5 t24.5 -127.5q0 -152 -84 -238t-215 -116q76 -12 138.5 -38t107.5 -70t70.5 -108.5t25.5 -152.5q0 -90 -36.5 -164.5t-100 -129t-150.5 -85t-186 -30.5q-154 0 -270.5 51t-214.5 133z" />
<glyph unicode="4" horiz-adv-x="1249" d="M76 369v71l696 1008h146v-981h266v-98h-266v-369h-121v369h-721zM223 467h574v831z" />
<glyph unicode="5" horiz-adv-x="1187" d="M92 180l70 94q102 -90 196.5 -138t214.5 -48q94 0 165 27.5t119 77t72.5 116t24.5 146.5q0 84 -25.5 149.5t-71.5 111.5t-107.5 70.5t-135.5 24.5q-66 0 -117 -9t-94 -26.5t-82.5 -43t-80.5 -58.5l-74 28l65 742h783l-10 -109h-668l-47 -514q35 23 68.5 41.5t71.5 30.5 t84 19.5t108 7.5q102 0 187 -32t146.5 -91.5t96 -144.5t34.5 -191q0 -104 -38.5 -193.5t-107.5 -153t-163 -99t-207 -35.5q-268 0 -477 200z" />
<glyph unicode="6" horiz-adv-x="1228" d="M115 676q0 158 37.5 301t112.5 251.5t186.5 172t259.5 63.5q66 0 116 -7t92 -19.5t76.5 -29.5t69.5 -38l-57 -108q-66 43 -136.5 68.5t-166.5 25.5q-106 0 -188.5 -45t-140 -126t-89 -191.5t-39.5 -239.5q98 53 197.5 81.5t222.5 28.5q227 0 346 -117.5t119 -316.5 q0 -100 -37 -183t-103.5 -142.5t-155.5 -92t-194 -32.5q-119 0 -216 47t-167 136t-107.5 219t-37.5 294zM246 645q2 -141 35.5 -246.5t88 -174t126 -102.5t151.5 -34q76 0 140.5 23.5t112.5 67.5t74.5 106.5t26.5 138.5q0 164 -91 248t-271 84q-104 0 -198.5 -29t-194.5 -82 z" />
<glyph unicode="7" horiz-adv-x="1146" d="M96 1335v109h955v-80q-123 -129 -221.5 -287.5t-167 -335t-108.5 -365t-48 -376.5h-131q12 193 55 378t109.5 355t154.5 322.5t193 279.5h-791z" />
<glyph unicode="8" horiz-adv-x="1249" d="M102 371q0 143 93.5 243.5t255.5 178.5q-135 57 -204 136t-69 195q0 63 32 125t90 109t141 76.5t186 29.5q102 0 185 -27.5t140.5 -73.5t88 -107.5t30.5 -131.5q0 -117 -75.5 -200.5t-194.5 -145.5q182 -74 264 -172t82 -229q0 -84 -40 -157t-110.5 -126t-166 -83.5 t-207.5 -30.5q-117 0 -213.5 29.5t-164 81.5t-105.5 124t-38 156zM229 381q0 -63 29 -117.5t81 -94.5t125 -62.5t163 -22.5q86 0 158.5 20.5t125 59.5t81 91t28.5 118q0 63 -23.5 116.5t-79 99.5t-143.5 87t-217 78q-154 -68 -241 -159t-87 -214zM305 1130q0 -115 89 -184 t296 -129q131 63 192.5 134t61.5 169q0 106 -85 174t-236 68q-72 0 -130.5 -17.5t-99.5 -49t-64.5 -73.5t-23.5 -92z" />
<glyph unicode="9" horiz-adv-x="1228" d="M96 1004q0 102 37 187t103.5 145.5t155.5 94t194 33.5q119 0 216 -47t166.5 -136t107.5 -219t38 -294q0 -158 -38 -301t-112.5 -252t-186 -172t-259.5 -63q-127 0 -215 28.5t-166 75.5l58 109q78 -53 155.5 -79t173.5 -26q104 0 185.5 44t138.5 121t89 183.5t42 231.5 q-96 -51 -195.5 -80t-222.5 -29q-227 0 -346 120t-119 325zM227 1010q0 -170 91.5 -256t271.5 -86q104 0 198.5 28.5t194.5 81.5q0 147 -32.5 256t-87 180.5t-127 106.5t-154.5 35q-76 0 -140.5 -24.5t-112.5 -69.5t-75 -108.5t-27 -143.5z" />
<glyph unicode=":" horiz-adv-x="552" d="M199 0v178h155v-178h-155zM199 874v179h155v-179h-155z" />
<glyph unicode=";" horiz-adv-x="552" d="M197 -193l61 193h-59v178h155v-158l-84 -213h-73zM199 874v179h155v-179h-155z" />
<glyph unicode="&#x3c;" horiz-adv-x="1331" d="M139 672v94l1041 457v-117l-899 -387l899 -387v-117z" />
<glyph unicode="=" horiz-adv-x="1351" d="M160 424v111h1032v-111h-1032zM160 903v111h1032v-111h-1032z" />
<glyph unicode="&#x3e;" horiz-adv-x="1331" d="M152 215v117l899 387l-899 387v117l1040 -457v-94z" />
<glyph unicode="?" horiz-adv-x="1064" d="M78 1276q104 90 211.5 139t238.5 49q98 0 177 -28.5t134.5 -78.5t86 -118.5t30.5 -148.5q0 -78 -19 -138.5t-56 -109.5t-89.5 -92t-119.5 -86q-43 -27 -73 -54.5t-49.5 -63.5t-29.5 -85t-12 -117h-90q0 86 10 147.5t33.5 107.5t62.5 84t99 75q98 63 149 138t51 189 q0 123 -82 195t-217 72q-104 0 -194 -45t-176 -119zM379 0v170h164v-170h-164z" />
<glyph unicode="A" horiz-adv-x="1331" d="M72 0l516 1450h155l517 -1450h-140l-153 442h-607l-153 -442h-135zM397 551h531l-266 764z" />
<glyph unicode="B" horiz-adv-x="1249" d="M182 0v1444h430q223 0 352.5 -87t129.5 -272q0 -145 -80 -224t-197 -105q70 -10 132.5 -35t108.5 -68t72.5 -104.5t26.5 -145.5q0 -205 -132 -304t-382 -99h-461zM309 102h344q197 0 285 68.5t88 226.5q0 162 -110.5 231.5t-290.5 69.5h-316v-596zM309 803h289 q197 0 281 66t84 216q0 137 -86 196.5t-271 59.5h-297v-538z" />
<glyph unicode="C" horiz-adv-x="1343" d="M115 723q0 168 47 305t128 234.5t191.5 149.5t237.5 52q109 0 191.5 -31.5t144 -87t101.5 -129t65 -159.5l-115 -43q-31 82 -65.5 145.5t-81 106.5t-105.5 64.5t-139 21.5q-98 0 -183.5 -43t-147.5 -124t-98 -198t-36 -264q0 -150 36 -267.5t98 -198.5t147 -123t186 -42 q152 0 248 77t163 245l105 -49q-66 -182 -201 -283.5t-321 -101.5q-127 0 -235.5 52t-188.5 149.5t-126 234.5t-46 307z" />
<glyph unicode="D" horiz-adv-x="1372" d="M182 0v1444h383q172 0 302 -51.5t217 -145.5t130 -226t43 -294q0 -164 -44 -297t-130 -229.5t-215 -148.5t-301 -52h-385zM313 113h271q129 0 228 43t169 122.5t105.5 193.5t35.5 255t-35.5 253t-105.5 189.5t-169 119.5t-228 42h-271v-1218z" />
<glyph unicode="E" horiz-adv-x="1116" d="M182 0v1444h817v-113h-686v-524h564v-113h-564v-581h717v-113h-848z" />
<glyph unicode="F" horiz-adv-x="1044" d="M182 0v1444h791v-113h-660v-555h537v-112h-537v-664h-131z" />
<glyph unicode="G" horiz-adv-x="1413" d="M115 723q0 168 46 305t128 234.5t193.5 149.5t242.5 52q111 0 195 -31.5t144 -85t99 -123t64 -147.5l-115 -43q-31 76 -64.5 135.5t-78.5 99.5t-105.5 61.5t-142.5 21.5q-102 0 -188.5 -43t-150 -124t-98 -198t-34.5 -264q0 -150 34.5 -266.5t99.5 -196.5t155 -121 t198 -41q117 0 212 44t171 116v340h-381v113h508v-721h-45l-67 145q-72 -59 -173.5 -104t-230.5 -45q-135 0 -248.5 51t-195.5 147.5t-127 232.5t-45 306z" />
<glyph unicode="H" horiz-adv-x="1413" d="M182 0v1444h131v-637h787v637h131v-1444h-131v694h-787v-694h-131z" />
<glyph unicode="I" horiz-adv-x="544" d="M207 0v1444h131v-1444h-131z" />
<glyph unicode="J" horiz-adv-x="757" d="M51 14v119q35 -10 83 -19.5t108 -9.5q45 0 84 12.5t67.5 41t45 73.5t16.5 113v1100h131v-1094q0 -94 -27 -161.5t-74 -111.5t-110.5 -64.5t-136.5 -20.5q-59 0 -106.5 6t-80.5 16z" />
<glyph unicode="K" horiz-adv-x="1249" d="M182 0v1444h131v-748l703 748h158l-564 -592l602 -852h-159l-531 758l-209 -219v-539h-131z" />
<glyph unicode="L" horiz-adv-x="1044" d="M182 0v1444h131v-1331h660v-113h-791z" />
<glyph unicode="M" horiz-adv-x="1843" d="M182 0v1444h187l551 -1268l550 1268h191v-1444h-131v1262l-555 -1262h-115l-555 1262v-1262h-123z" />
<glyph unicode="N" horiz-adv-x="1409" d="M182 0v1444h150l772 -1204v1204h123v-1444h-113l-809 1260v-1260h-123z" />
<glyph unicode="O" horiz-adv-x="1441" d="M115 723q0 168 46 305t128 234.5t192.5 149.5t239.5 52q131 0 241.5 -52t191.5 -149.5t127 -234.5t46 -307t-46 -306t-128 -233.5t-192.5 -149.5t-239.5 -52q-131 0 -241.5 52t-191.5 149.5t-127 234.5t-46 307zM250 723q0 -150 36 -267.5t98 -198.5t148 -123t189 -42 q102 0 188 43t149.5 124t98.5 198t35 264q0 150 -36 267.5t-98.5 198.5t-149.5 123t-187 42q-102 0 -188.5 -43t-150 -124t-98 -198t-34.5 -264z" />
<glyph unicode="P" horiz-adv-x="1208" d="M182 0v1444h439q131 0 226 -31t156.5 -84t90 -129t28.5 -164q0 -193 -134 -304t-390 -111h-285v-621h-131zM313 729h297q174 0 275.5 70.5t101.5 232.5q0 160 -98 231.5t-281 71.5h-295v-606z" />
<glyph unicode="Q" horiz-adv-x="1441" d="M115 723q0 168 46 305t128 234.5t192.5 149.5t239.5 52q131 0 241.5 -52t191.5 -149.5t127 -234.5t46 -307q0 -158 -40 -288t-112.5 -225t-171 -153.5t-215.5 -70.5v-31q0 -88 49.5 -122t135.5 -34q41 0 76.5 8.5t89.5 24.5v-104q-53 -20 -103.5 -28.5t-107.5 -8.5 q-59 0 -110.5 17.5t-88.5 54t-57 91.5q-16 47 -16 107q0 12 1 25q-119 12 -218 69.5t-171.5 152.5t-112.5 226t-40 291zM250 723q0 -150 36 -267.5t98 -198.5t148 -123t189 -42q102 0 188 43t149.5 124t98.5 198t35 264q0 150 -36 267.5t-98.5 198.5t-149.5 123t-187 42 q-102 0 -188.5 -43t-150 -124t-98 -198t-34.5 -264z" />
<glyph unicode="R" horiz-adv-x="1249" d="M182 0v1444h449q131 0 225 -32t152.5 -85t86 -125t27.5 -151q0 -135 -79.5 -236.5t-239.5 -142.5l352 -672h-154l-339 649h-349v-649h-131zM313 758h308q174 0 270 72t96 217q0 143 -93 215.5t-276 72.5h-305v-577z" />
<glyph unicode="S" horiz-adv-x="1193" d="M100 166l80 96q86 -76 183.5 -123t236.5 -47q147 0 237.5 66.5t90.5 199.5q0 61 -16.5 107.5t-55.5 83.5t-104.5 68.5t-163.5 62.5q-109 33 -190 67.5t-136 83t-82.5 112t-27.5 155.5q0 68 26.5 134t79.5 117.5t136 83t194 31.5q147 0 256.5 -51t185.5 -125l-80 -96 q-41 39 -81 68.5t-83 50t-94 31t-117 10.5q-137 0 -212.5 -67.5t-75.5 -172.5q0 -70 19.5 -117t61.5 -80.5t106.5 -60.5t154.5 -53q102 -31 183 -68t136.5 -86t85 -115.5t29.5 -158.5q0 -96 -37 -170t-101.5 -123t-149.5 -74.5t-179 -25.5q-168 0 -289 54t-207 132z" />
<glyph unicode="T" horiz-adv-x="1187" d="M59 1331v113h1069v-113h-469v-1331h-131v1331h-469z" />
<glyph unicode="U" horiz-adv-x="1380" d="M166 481v963h131v-944q0 -90 23.5 -164t72.5 -127t124 -83t177 -30t176 29t121 81t69.5 123.5t22.5 157.5v957h131v-961q0 -102 -32.5 -192t-98 -159t-164 -108.5t-229.5 -39.5t-229.5 38.5t-164 106.5t-98 159t-32.5 193z" />
<glyph unicode="V" horiz-adv-x="1310" d="M72 1444h139l448 -1270l445 1270h135l-522 -1450h-123z" />
<glyph unicode="W" horiz-adv-x="2007" d="M80 1444h137l369 -1264l354 1264h131l354 -1264l369 1264h133l-442 -1448h-127l-354 1261l-355 -1261h-127z" />
<glyph unicode="X" horiz-adv-x="1290" d="M57 0l518 764l-458 680h149l383 -576l381 576h146l-461 -678l518 -766h-150l-440 662l-440 -662h-146z" />
<glyph unicode="Y" horiz-adv-x="1228" d="M43 1444h143l430 -707l431 707h139l-506 -819v-625h-131v625z" />
<glyph unicode="Z" horiz-adv-x="1249" d="M102 0v80l873 1255h-819v109h979v-80l-873 -1255h873v-109h-1033z" />
<glyph unicode="[" horiz-adv-x="798" d="M205 -170v1614h483v-98h-364v-1418h364v-98h-483z" />
<glyph unicode="\" horiz-adv-x="901" d="M-8 1528h119l835 -1692h-119z" />
<glyph unicode="]" horiz-adv-x="798" d="M111 -72h364v1418h-364v98h483v-1614h-483v98z" />
<glyph unicode="_" horiz-adv-x="1228" d="M-4 -221h1237v-109h-1237v109z" />
<glyph unicode="`" horiz-adv-x="1024" d="M299 1516h184l189 -306h-82z" />
<glyph unicode="a" horiz-adv-x="1105" d="M98 272q0 82 34 147.5t117 114t223 79t351 44.5v91q0 117 -58 167t-187 50q-117 0 -205 -29t-176 -76l-29 105q96 49 194.5 77.5t231.5 28.5q96 0 163.5 -21.5t109.5 -61.5t60.5 -96t18.5 -126v-766h-102l-17 141q-55 -43 -104 -73.5t-96 -49t-95.5 -26.5t-101.5 -8 q-66 0 -126 16t-106 52t-73 90.5t-27 129.5zM223 279q0 -98 60.5 -145.5t160.5 -47.5q55 0 103.5 9t93.5 28.5t89 48.5t93 66v331q-193 -12 -310.5 -39.5t-182 -65.5t-86 -85t-21.5 -100z" />
<glyph unicode="b" horiz-adv-x="1204" d="M170 0v1475h127v-566q80 76 163 118t187 42q100 0 183 -37t142.5 -106.5t92.5 -170t33 -227.5q0 -131 -38 -232t-103.5 -170t-152.5 -104.5t-186 -35.5q-98 0 -180 37.5t-147 103.5l-15 -127h-106zM297 250q72 -76 150.5 -117t179.5 -41q74 0 136 27.5t108.5 82t72 135 t25.5 189.5q0 106 -27 188.5t-73 137.5t-106.5 83t-129.5 28q-102 0 -180 -45.5t-156 -116.5v-551z" />
<glyph unicode="c" horiz-adv-x="1105" d="M100 526q0 115 35 215.5t99.5 174t153.5 116.5t198 43q86 0 150.5 -20.5t113.5 -57t86 -89t65 -115.5l-112 -45q-25 53 -52.5 94t-63.5 69.5t-81 43t-106 14.5q-84 0 -149.5 -34t-111.5 -94.5t-71 -140t-25 -172.5q0 -92 23.5 -173t70 -141t112 -94t151.5 -34 q121 0 190.5 53.5t122.5 155.5l107 -45q-63 -131 -168 -200.5t-252 -69.5q-109 0 -198 43t-153.5 116.5t-99.5 173t-35 213.5z" />
<glyph unicode="d" horiz-adv-x="1204" d="M106 526q0 131 38 232.5t103.5 170t152.5 104.5t186 36q94 0 175 -36t146 -101v543h127v-1475h-106l-17 147q-82 -76 -164.5 -118.5t-189.5 -42.5q-100 0 -183 36.5t-142.5 106.5t-92.5 170t-33 227zM236 528q0 -109 26.5 -189.5t72.5 -136t106.5 -83t129.5 -27.5 q102 0 180 44t156 116v551q-72 78 -150.5 119t-178.5 41q-74 0 -136.5 -28t-108.5 -82t-71.5 -136t-25.5 -189z" />
<glyph unicode="e" horiz-adv-x="1126" d="M100 526q0 117 36 217.5t98.5 174t148.5 115.5t188 42q104 0 187.5 -39t141.5 -110.5t89 -174t31 -227.5v-15t-2 -15h-793q6 -92 35 -167t78 -128.5t116.5 -83t149.5 -29.5q100 0 181 29.5t163 95.5l60 -84q-98 -76 -192.5 -111.5t-217.5 -35.5q-109 0 -201 40.5 t-157.5 112.5t-102.5 172.5t-37 220.5zM227 588h668q-6 80 -27.5 150.5t-61.5 122.5t-97.5 83t-137.5 31q-76 0 -136 -28.5t-104 -81t-71 -123t-33 -154.5z" />
<glyph unicode="f" horiz-adv-x="757" d="M76 950v103h194v161q0 268 287 269q55 0 98 -6.5t76 -14.5l-10 -108q-41 10 -82 16t-88 6q-76 0 -117 -35.5t-41 -117.5v-170h297v-103h-297v-950h-123v950h-194z" />
<glyph unicode="g" horiz-adv-x="1204" d="M106 537q0 127 38 226t103.5 166.5t152.5 103.5t186 36q98 0 180 -38t147 -103l15 125h106v-1022q0 -96 -31.5 -167t-91 -117t-142.5 -67.5t-183 -21.5q-129 0 -226.5 20.5t-179.5 51.5l37 94q39 -14 77 -25.5t79 -20.5t89 -14.5t107 -5.5q160 0 249 59.5t89 205.5v141 q-80 -74 -162.5 -116t-187.5 -42q-100 0 -183 37t-142.5 105.5t-92.5 167t-33 221.5zM236 539q0 -102 26.5 -182.5t72.5 -134.5t106.5 -81.5t129.5 -27.5q102 0 180 44t156 115v531q-72 78 -150.5 119t-178.5 41q-74 0 -136.5 -28t-108.5 -82t-71.5 -133t-25.5 -181z" />
<glyph unicode="h" horiz-adv-x="1191" d="M170 0v1475h127v-564q82 74 171 116t202 42q186 0 274 -105.5t88 -277.5v-686h-127v662q0 154 -67.5 227.5t-196.5 73.5q-98 0 -177 -40t-167 -120v-803h-127z" />
<glyph unicode="i" d="M186 1311v164h140v-164h-140zM193 0v1053h126v-1053h-126z" />
<glyph unicode="j" horiz-adv-x="544" d="M45 -231q10 -2 30.5 -3.5t39.5 -1.5q78 0 78 86v1203h126v-1196q0 -104 -51 -150.5t-159 -46.5q-16 0 -35 1t-29 3v105zM186 1311v164h140v-164h-140z" />
<glyph unicode="k" horiz-adv-x="1085" d="M170 0v1475h127v-961l541 539h141l-416 -400l445 -653h-138l-391 571l-182 -176v-395h-127z" />
<glyph unicode="l" d="M193 0v1475h126v-1475h-126z" />
<glyph unicode="m" horiz-adv-x="1904" d="M170 0v1053h106l17 -146q82 76 171 119t200 43q121 0 198.5 -47t118.5 -133q94 86 190.5 133t214.5 47q180 0 269.5 -103.5t89.5 -273.5v-692h-127v668q0 150 -68.5 222.5t-191.5 72.5q-96 0 -174 -40t-164 -120v-803h-125v668q0 150 -68.5 222.5t-191.5 72.5 q-94 0 -172 -40t-166 -120v-803h-127z" />
<glyph unicode="n" horiz-adv-x="1191" d="M170 0v1053h106l17 -146q82 76 172 119t205 43q186 0 274 -105.5t88 -277.5v-686h-127v662q0 154 -67.5 227.5t-196.5 73.5q-98 0 -177 -40t-167 -120v-803h-127z" />
<glyph unicode="o" horiz-adv-x="1191" d="M100 526q0 115 35 215.5t99.5 174t155.5 116.5t206 43q113 0 205 -43t156.5 -116.5t99.5 -174t35 -213.5q0 -115 -35 -215t-99.5 -173.5t-156.5 -116.5t-205 -43q-115 0 -206 43t-155.5 116.5t-99.5 173t-35 213.5zM229 528q0 -92 23.5 -173t70 -141t115 -94t158.5 -34 q88 0 156.5 34t114.5 94t71 140t25 172t-24 173t-70 141.5t-114.5 94.5t-158.5 34q-88 0 -156.5 -34t-114.5 -94.5t-71 -140t-25 -172.5z" />
<glyph unicode="p" horiz-adv-x="1204" d="M170 -330v1383h106l17 -146q82 76 165 119t189 43q100 0 183 -37t142.5 -106.5t92.5 -170t33 -227.5q0 -131 -38 -232t-103.5 -170t-152.5 -104.5t-186 -35.5q-94 0 -175 35.5t-146 99.5v-451h-127zM297 250q72 -76 150.5 -117t179.5 -41q74 0 136 27.5t108.5 82t72 135 t25.5 189.5q0 106 -27 188.5t-73 137.5t-106.5 83t-129.5 28q-102 0 -180 -44.5t-156 -115.5v-553z" />
<glyph unicode="q" horiz-adv-x="1204" d="M106 526q0 131 38 232.5t103.5 170t152.5 104.5t186 36q98 0 180 -38t147 -103l15 125h106v-1383h-127v473q-80 -74 -162.5 -115.5t-187.5 -41.5q-100 0 -183 36.5t-142.5 106.5t-92.5 170t-33 227zM236 528q0 -109 26.5 -189.5t72.5 -136t106.5 -83t129.5 -27.5 q102 0 180 44t156 116v551q-72 78 -150.5 119t-178.5 41q-74 0 -136.5 -28t-108.5 -82t-71.5 -136t-25.5 -189z" />
<glyph unicode="r" horiz-adv-x="768" d="M170 0v1053h106l21 -201q72 98 171 155.5t241 57.5v-121q-147 0 -245.5 -55t-166.5 -170v-719h-127z" />
<glyph unicode="s" horiz-adv-x="1064" d="M104 133l74 88q68 -53 156 -92t205 -39q135 0 203.5 50t68.5 141q0 47 -14.5 79.5t-46 57t-86 42t-134.5 34.5q-109 23 -181.5 47t-117.5 59t-64.5 81t-19.5 112q0 123 97.5 200.5t271.5 77.5q66 0 119 -7t99 -22.5t86 -37t81 -50.5l-72 -96q-72 53 -148.5 80t-174.5 27 q-117 0 -175.5 -45.5t-58.5 -116.5q0 -41 13.5 -71t45 -51.5t88 -38.5t142.5 -36q92 -18 163 -42.5t118 -60.5t70.5 -87t23.5 -125t-31 -131.5t-85 -96t-129 -59t-163 -20.5q-131 0 -238.5 44t-185.5 105z" />
<glyph unicode="t" horiz-adv-x="798" d="M61 950v103h195l33 350h90v-350h319v-103h-319v-694q0 -82 37 -123t127 -41q47 0 83 6t74 23v-107q-43 -16 -84 -22t-90 -6q-141 0 -205.5 63.5t-64.5 198.5v702h-195z" />
<glyph unicode="u" horiz-adv-x="1191" d="M160 367v686h127v-662q0 -154 67.5 -227.5t196.5 -73.5q98 0 177 40t167 120v803h127v-1053h-107l-16 145q-82 -76 -172 -118.5t-205 -42.5q-188 0 -275 105.5t-87 277.5z" />
<glyph unicode="v" horiz-adv-x="1085" d="M59 1053h136l350 -916l348 916h133l-424 -1059h-119z" />
<glyph unicode="w" horiz-adv-x="1658" d="M57 1053h129l283 -914l301 914h127l299 -914l281 914h125l-349 -1057h-120l-302 919l-309 -919h-116z" />
<glyph unicode="x" horiz-adv-x="1085" d="M61 0l416 551l-377 502h146l299 -414l299 414h141l-377 -500l416 -553h-145l-338 467l-338 -467h-142z" />
<glyph unicode="y" horiz-adv-x="1085" d="M59 1053h136l350 -916l348 916h133l-444 -1106q-63 -158 -146.5 -221.5t-202.5 -63.5q-41 0 -67.5 3t-54.5 9v105q33 -6 61.5 -9t67.5 -3q90 0 143 51t100 180z" />
<glyph unicode="z" horiz-adv-x="1024" d="M82 0v72l692 882h-641v99h795v-72l-692 -883h692v-98h-846z" />
<glyph unicode="{" horiz-adv-x="921" d="M80 592v90q74 0 123 12.5t79.5 41t43 77.5t12.5 123v194q0 160 77 237t240 77h156v-98h-162q-193 0 -192 -193v-199q0 -86 -13.5 -140t-40 -88t-63.5 -53.5t-82 -31.5v-8q45 -12 82 -31.5t63.5 -53.5t40 -88t13.5 -141v-198q0 -193 192 -193h162v-98h-156 q-164 0 -240.5 77t-76.5 236v195q0 74 -12.5 123t-43 77.5t-79.5 41t-123 12.5z" />
<glyph unicode="|" horiz-adv-x="552" d="M215 -330v1927h123v-1927h-123z" />
<glyph unicode="}" horiz-adv-x="921" d="M111 -72h161q193 0 193 193v198q0 86 13.5 140.5t40 88.5t62 53.5t83.5 31.5v8q-47 12 -83 31.5t-62.5 53.5t-40 88t-13.5 140v199q0 193 -193 193h-161v98h155q164 0 241 -77t77 -237v-194q0 -74 12 -123t43 -77.5t80 -41t123 -12.5v-90q-74 0 -123 -12.5t-80 -41 t-43 -77.5t-12 -123v-195q0 -160 -77 -236.5t-241 -76.5h-155v98z" />
<glyph horiz-adv-x="1249" d="M102 0v80l873 1255h-819v109h979v-80l-873 -1255h873v-109h-1033zM317 1853h84l224 -178l223 178h80l-254 -299h-103z" />
<glyph horiz-adv-x="1024" d="M82 0v72l692 882h-641v99h795v-72l-692 -883h692v-98h-846zM207 1516h84l223 -179l223 179h80l-254 -299h-102z" />
<glyph unicode="&#xa1;" horiz-adv-x="552" d="M195 1274v170h163v-170h-163zM203 0l28 1100h91l28 -1100h-147z" />
<glyph unicode="&#xa2;" horiz-adv-x="1126" d="M111 547q0 106 30.5 200.5t87 167t135 119.5t175.5 58v157h100v-155q129 -8 212 -67.5t153 -158.5l-91 -65q-31 43 -59.5 75.5t-60 57.5t-68.5 40t-86 19v-895q94 10 159.5 56.5t129.5 124.5l82 -64q-78 -98 -166 -152.5t-205 -62.5v-207h-100v209q-96 10 -175 57.5 t-135.5 119t-87 165.5t-30.5 201zM233 549q0 -86 20.5 -163t59.5 -136.5t95.5 -97t130.5 -50.5v891q-72 -12 -128.5 -50t-96.5 -97.5t-60.5 -135t-20.5 -161.5z" />
<glyph unicode="&#xa3;" horiz-adv-x="1126" d="M119 0v111q55 23 103 52.5t84 70t55.5 94t19.5 125.5q0 59 -13.5 113.5t-35.5 105.5h-213v104h164q-41 78 -73 156t-32 168q0 76 29 142.5t81 115.5t125.5 77.5t166.5 28.5q68 0 125 -12t108 -34.5t99.5 -55.5t101.5 -76l-68 -96q-47 39 -91 69.5t-88 52t-90 32 t-102 10.5q-129 0 -200.5 -67.5t-71.5 -184.5q0 -80 35 -160t74 -166h385v-104h-340q20 -49 32.5 -101.5t12.5 -107.5q0 -74 -14.5 -129t-40 -97t-59.5 -73t-71 -55h437q90 0 134 45t48 159l113 -20q-8 -158 -78 -225.5t-223 -67.5h-629z" />
<glyph unicode="&#xa4;" horiz-adv-x="1597" d="M41 705v34q154 20 264.5 52t190.5 86q-39 127 -144 262l23 22q137 -104 262 -143q53 84 86 197.5t55 269.5h41q20 -154 53 -267.5t86 -195.5q63 20 128 56t133 87l22 -22q-104 -137 -143 -264q80 -53 192.5 -85t265.5 -55v-34q-154 -20 -265 -53.5t-191 -86.5 q39 -125 145 -266l-22 -23q-137 102 -267 144q-53 -82 -83.5 -194.5t-53.5 -266.5h-41q-20 154 -51 265.5t-84 193.5q-123 -39 -264 -146l-23 23q53 72 89 137.5t55 130.5q-80 53 -192.5 86t-266.5 56z" />
<glyph unicode="&#xa5;" horiz-adv-x="1228" d="M43 1444h143l430 -717l431 717h139l-490 -793h344v-96h-366v-205h366v-96h-366v-254h-119v254h-367v96h367v205h-367v96h344z" />
<glyph unicode="&#xa6;" horiz-adv-x="1597" d="M41 705v34q154 20 264.5 52t190.5 86q-39 127 -144 262l23 22q137 -104 262 -143q53 84 86 197.5t55 269.5h41q20 -154 53 -267.5t86 -195.5q63 20 128 56t133 87l22 -22q-104 -137 -143 -264q80 -53 192.5 -85t265.5 -55v-34q-154 -20 -265 -53.5t-191 -86.5 q39 -125 145 -266l-22 -23q-137 102 -267 144q-53 -82 -83.5 -194.5t-53.5 -266.5h-41q-20 154 -51 265.5t-84 193.5q-123 -39 -264 -146l-23 23q53 72 89 137.5t55 130.5q-80 53 -192.5 86t-266.5 56z" />
<glyph unicode="&#xa7;" horiz-adv-x="1187" d="M106 604q0 117 70 198t172 130q-59 47 -87 102.5t-28 126.5q0 57 23 111.5t68 97.5t108.5 68.5t147.5 25.5q63 0 117.5 -9t103.5 -27.5t97 -46t101 -64.5l-59 -98q-98 70 -179 104.5t-179 34.5q-59 0 -101.5 -16.5t-70 -43t-40 -61.5t-12.5 -72q0 -43 14.5 -76.5 t47.5 -63.5t88 -57.5t137 -58.5q129 -47 213 -91t134 -90t69.5 -98t19.5 -120q0 -117 -69.5 -198t-171.5 -132q59 -45 86.5 -100t27.5 -127q0 -57 -22.5 -111.5t-67.5 -97.5t-109.5 -68.5t-146.5 -25.5q-63 0 -117.5 9t-103.5 27.5t-97 46t-102 64.5l60 99q98 -70 179 -105 t179 -35q59 0 101.5 16.5t70 43t39.5 61.5t12 72q0 43 -14 76.5t-47 63.5t-88 57.5t-137 58.5q-129 47 -213 91t-134.5 90t-70 98.5t-19.5 119.5zM229 610q0 -45 12.5 -81.5t49.5 -71.5t105.5 -71t183.5 -77q94 -33 163 -69q215 98 215 264q0 45 -12 82t-49 71.5 t-105.5 70.5t-183.5 77q-94 33 -164 69q-215 -98 -215 -264z" />
<glyph unicode="&#xa8;" horiz-adv-x="1024" d="M254 1217v174h152v-174h-152zM618 1217v174h152v-174h-152z" />
<glyph unicode="&#xaa;" horiz-adv-x="942" d="M154 455v90h610v-90h-610zM154 901q0 57 23.5 103.5t80.5 80t153.5 56t239.5 33.5v51q0 78 -38 108.5t-124 30.5q-76 0 -138 -19.5t-128 -54.5l-24 84q72 39 141.5 60.5t161.5 21.5q139 0 195.5 -59.5t56.5 -157.5v-532h-88l-9 86q-72 -53 -132 -76t-134 -23 q-98 0 -167.5 49.5t-69.5 157.5zM252 901q0 -63 39 -92t106 -29q78 0 133.5 25.5t120.5 75.5v213q-127 -10 -205.5 -27.5t-121.5 -43.5t-57.5 -56.5t-14.5 -65.5z" />
<glyph unicode="&#xab;" horiz-adv-x="1105" d="M111 526l335 527h129l-329 -527l329 -526h-129zM528 526l336 527h129l-329 -527l329 -526h-129z" />
<glyph unicode="&#xac;" horiz-adv-x="1597" d="M41 705v34q154 20 264.5 52t190.5 86q-39 127 -144 262l23 22q137 -104 262 -143q53 84 86 197.5t55 269.5h41q20 -154 53 -267.5t86 -195.5q63 20 128 56t133 87l22 -22q-104 -137 -143 -264q80 -53 192.5 -85t265.5 -55v-34q-154 -20 -265 -53.5t-191 -86.5 q39 -125 145 -266l-22 -23q-137 102 -267 144q-53 -82 -83.5 -194.5t-53.5 -266.5h-41q-20 154 -51 265.5t-84 193.5q-123 -39 -264 -146l-23 23q53 72 89 137.5t55 130.5q-80 53 -192.5 86t-266.5 56z" />
<glyph unicode="&#xad;" horiz-adv-x="675" d="M141 537v120h394v-120h-394z" />
<glyph unicode="&#xaf;" horiz-adv-x="1024" d="M193 1280v115h638v-115h-638z" />
<glyph unicode="&#xb0;" horiz-adv-x="880" d="M129 1149q0 68 23.5 124t65.5 97t98.5 63.5t123.5 22.5q68 0 124.5 -22.5t98.5 -63.5t65.5 -97t23.5 -124t-23.5 -124t-65.5 -97t-98.5 -63.5t-124.5 -22.5t-124 22.5t-98 63.5t-65.5 97t-23.5 124zM233 1149q0 -94 58.5 -153.5t148.5 -59.5t148.5 59.5t58.5 153.5 t-58.5 153.5t-148.5 59.5t-148.5 -59.5t-58.5 -153.5z" />
<glyph unicode="&#xb1;" horiz-adv-x="1597" d="M41 705v34q154 20 264.5 52t190.5 86q-39 127 -144 262l23 22q137 -104 262 -143q53 84 86 197.5t55 269.5h41q20 -154 53 -267.5t86 -195.5q63 20 128 56t133 87l22 -22q-104 -137 -143 -264q80 -53 192.5 -85t265.5 -55v-34q-154 -20 -265 -53.5t-191 -86.5 q39 -125 145 -266l-22 -23q-137 102 -267 144q-53 -82 -83.5 -194.5t-53.5 -266.5h-41q-20 154 -51 265.5t-84 193.5q-123 -39 -264 -146l-23 23q53 72 89 137.5t55 130.5q-80 53 -192.5 86t-266.5 56z" />
<glyph unicode="&#xb2;" horiz-adv-x="1597" d="M41 705v34q154 20 264.5 52t190.5 86q-39 127 -144 262l23 22q137 -104 262 -143q53 84 86 197.5t55 269.5h41q20 -154 53 -267.5t86 -195.5q63 20 128 56t133 87l22 -22q-104 -137 -143 -264q80 -53 192.5 -85t265.5 -55v-34q-154 -20 -265 -53.5t-191 -86.5 q39 -125 145 -266l-22 -23q-137 102 -267 144q-53 -82 -83.5 -194.5t-53.5 -266.5h-41q-20 154 -51 265.5t-84 193.5q-123 -39 -264 -146l-23 23q53 72 89 137.5t55 130.5q-80 53 -192.5 86t-266.5 56z" />
<glyph unicode="&#xb3;" horiz-adv-x="1597" d="M41 705v34q154 20 264.5 52t190.5 86q-39 127 -144 262l23 22q137 -104 262 -143q53 84 86 197.5t55 269.5h41q20 -154 53 -267.5t86 -195.5q63 20 128 56t133 87l22 -22q-104 -137 -143 -264q80 -53 192.5 -85t265.5 -55v-34q-154 -20 -265 -53.5t-191 -86.5 q39 -125 145 -266l-22 -23q-137 102 -267 144q-53 -82 -83.5 -194.5t-53.5 -266.5h-41q-20 154 -51 265.5t-84 193.5q-123 -39 -264 -146l-23 23q53 72 89 137.5t55 130.5q-80 53 -192.5 86t-266.5 56z" />
<glyph unicode="&#xb4;" horiz-adv-x="1024" d="M352 1210l189 306h184l-291 -306h-82z" />
<glyph unicode="&#xb5;" horiz-adv-x="1597" d="M41 705v34q154 20 264.5 52t190.5 86q-39 127 -144 262l23 22q137 -104 262 -143q53 84 86 197.5t55 269.5h41q20 -154 53 -267.5t86 -195.5q63 20 128 56t133 87l22 -22q-104 -137 -143 -264q80 -53 192.5 -85t265.5 -55v-34q-154 -20 -265 -53.5t-191 -86.5 q39 -125 145 -266l-22 -23q-137 102 -267 144q-53 -82 -83.5 -194.5t-53.5 -266.5h-41q-20 154 -51 265.5t-84 193.5q-123 -39 -264 -146l-23 23q53 72 89 137.5t55 130.5q-80 53 -192.5 86t-266.5 56z" />
<glyph unicode="&#xb6;" horiz-adv-x="1228" d="M104 1042q0 197 135.5 299.5t378.5 102.5h424v-1774h-110v1673h-230v-1673h-110v961q-236 10 -362 113.5t-126 297.5z" />
<glyph unicode="&#xb7;" d="M178 508v178h156v-178h-156z" />
<glyph unicode="&#xb8;" horiz-adv-x="1024" d="M246 -387l30 61q55 -23 102.5 -33t102.5 -10q63 0 100 23.5t37 64.5q0 39 -23.5 57.5t-59.5 18.5q-33 0 -59.5 -4t-61.5 -14l-23 82q41 14 79 20t83 6q76 0 126 -36.5t50 -110.5q0 -49 -19.5 -83t-53 -54.5t-77.5 -29.5t-96 -9q-66 0 -119 11t-118 40z" />
<glyph unicode="&#xb9;" horiz-adv-x="1597" d="M41 705v34q154 20 264.5 52t190.5 86q-39 127 -144 262l23 22q137 -104 262 -143q53 84 86 197.5t55 269.5h41q20 -154 53 -267.5t86 -195.5q63 20 128 56t133 87l22 -22q-104 -137 -143 -264q80 -53 192.5 -85t265.5 -55v-34q-154 -20 -265 -53.5t-191 -86.5 q39 -125 145 -266l-22 -23q-137 102 -267 144q-53 -82 -83.5 -194.5t-53.5 -266.5h-41q-20 154 -51 265.5t-84 193.5q-123 -39 -264 -146l-23 23q53 72 89 137.5t55 130.5q-80 53 -192.5 86t-266.5 56z" />
<glyph unicode="&#xba;" horiz-adv-x="942" d="M125 1071q0 80 24.5 149.5t68.5 122t108.5 83t144.5 30.5t144.5 -30.5t108.5 -83t68.5 -122t24.5 -149.5t-24.5 -150.5t-68.5 -123t-108.5 -82t-144.5 -29.5t-144.5 29.5t-108.5 82t-68.5 123t-24.5 150.5zM145 455v90h652v-90h-652zM233 1073q0 -61 15.5 -115.5 t45.5 -94.5t74 -62.5t103 -22.5q57 0 102 22.5t75 62.5t45.5 92.5t15.5 113.5t-15.5 114.5t-45.5 93.5t-74 63.5t-103 23.5t-103 -22.5t-74 -62.5t-45.5 -92t-15.5 -114z" />
<glyph unicode="&#xbb;" horiz-adv-x="1105" d="M113 0l329 526l-329 527h129l336 -527l-336 -526h-129zM530 0l330 526l-330 527h129l336 -527l-336 -526h-129z" />
<glyph unicode="&#xbc;" horiz-adv-x="1597" d="M41 705v34q154 20 264.5 52t190.5 86q-39 127 -144 262l23 22q137 -104 262 -143q53 84 86 197.5t55 269.5h41q20 -154 53 -267.5t86 -195.5q63 20 128 56t133 87l22 -22q-104 -137 -143 -264q80 -53 192.5 -85t265.5 -55v-34q-154 -20 -265 -53.5t-191 -86.5 q39 -125 145 -266l-22 -23q-137 102 -267 144q-53 -82 -83.5 -194.5t-53.5 -266.5h-41q-20 154 -51 265.5t-84 193.5q-123 -39 -264 -146l-23 23q53 72 89 137.5t55 130.5q-80 53 -192.5 86t-266.5 56z" />
<glyph unicode="&#xbd;" horiz-adv-x="1597" d="M41 705v34q154 20 264.5 52t190.5 86q-39 127 -144 262l23 22q137 -104 262 -143q53 84 86 197.5t55 269.5h41q20 -154 53 -267.5t86 -195.5q63 20 128 56t133 87l22 -22q-104 -137 -143 -264q80 -53 192.5 -85t265.5 -55v-34q-154 -20 -265 -53.5t-191 -86.5 q39 -125 145 -266l-22 -23q-137 102 -267 144q-53 -82 -83.5 -194.5t-53.5 -266.5h-41q-20 154 -51 265.5t-84 193.5q-123 -39 -264 -146l-23 23q53 72 89 137.5t55 130.5q-80 53 -192.5 86t-266.5 56z" />
<glyph unicode="&#xbe;" horiz-adv-x="1597" d="M41 705v34q154 20 264.5 52t190.5 86q-39 127 -144 262l23 22q137 -104 262 -143q53 84 86 197.5t55 269.5h41q20 -154 53 -267.5t86 -195.5q63 20 128 56t133 87l22 -22q-104 -137 -143 -264q80 -53 192.5 -85t265.5 -55v-34q-154 -20 -265 -53.5t-191 -86.5 q39 -125 145 -266l-22 -23q-137 102 -267 144q-53 -82 -83.5 -194.5t-53.5 -266.5h-41q-20 154 -51 265.5t-84 193.5q-123 -39 -264 -146l-23 23q53 72 89 137.5t55 130.5q-80 53 -192.5 86t-266.5 56z" />
<glyph unicode="&#xbf;" horiz-adv-x="1064" d="M109 354q0 78 19 138.5t56 109.5t89.5 92t119.5 86q43 27 73 54.5t49.5 63.5t28.5 85t13 117h90q0 -86 -10 -147.5t-33.5 -107.5t-62.5 -84t-99 -75q-98 -63 -149 -138t-51 -190q0 -123 82 -194.5t217 -71.5q104 0 194 45t176 119l76 -88q-104 -90 -211.5 -139 t-238.5 -49q-98 0 -177 28.5t-134.5 78.5t-86 118.5t-30.5 148.5zM522 1274v170h164v-170h-164z" />
<glyph unicode="&#xc0;" horiz-adv-x="1331" d="M72 0l516 1450h155l517 -1450h-140l-153 442h-607l-153 -442h-135zM334 1854h184l189 -306h-82zM397 551h531l-266 764z" />
<glyph unicode="&#xc1;" horiz-adv-x="1331" d="M72 0l516 1450h155l517 -1450h-140l-153 442h-607l-153 -442h-135zM397 551h531l-266 764zM624 1548l189 306h184l-291 -306h-82z" />
<glyph unicode="&#xc2;" horiz-adv-x="1331" d="M72 0l516 1450h155l517 -1450h-140l-153 442h-607l-153 -442h-135zM361 1555l254 299h102l254 -299h-84l-223 178l-223 -178h-80zM397 551h531l-266 764z" />
<glyph unicode="&#xc3;" horiz-adv-x="1331" d="M72 0l516 1450h155l517 -1450h-140l-153 442h-607l-153 -442h-135zM359 1555q-4 125 35 180t125 55q41 0 76.5 -17.5t82.5 -45.5q47 -29 80 -44.5t62 -15.5q61 0 61 119h92q4 -125 -35 -180.5t-125 -55.5q-41 0 -76.5 17.5t-82.5 46.5t-80 44t-62 15q-61 0 -61 -118h-92z M397 551h531l-266 764z" />
<glyph unicode="&#xc4;" horiz-adv-x="1331" d="M72 0l516 1450h155l517 -1450h-140l-153 442h-607l-153 -442h-135zM397 551h531l-266 764zM408 1555v174h152v-174h-152zM772 1555v174h152v-174h-152z" />
<glyph unicode="&#xc5;" horiz-adv-x="1331" d="M72 0l495 1393q-49 25 -78.5 74t-29.5 110q0 90 58 148.5t149 58.5q90 0 148 -58.5t58 -148.5q0 -61 -29.5 -109.5t-78.5 -74.5l496 -1393h-140l-153 442h-607l-153 -442h-135zM397 551h531l-266 764zM539 1577q0 -59 35.5 -96t91.5 -37q55 0 91 37t36 96t-36 96t-91 37 t-91 -37t-36 -96z" />
<glyph unicode="&#xc7;" horiz-adv-x="1343" d="M115 723q0 168 47 305t128 234.5t191.5 149.5t237.5 52q109 0 191.5 -31.5t144 -87t101.5 -129t65 -159.5l-115 -43q-31 82 -65.5 145.5t-81 106.5t-105.5 64.5t-139 21.5q-98 0 -183.5 -43t-147.5 -124t-98 -198t-36 -264q0 -150 36 -267.5t98 -198.5t147 -123t186 -42 q152 0 248 77t163 245l105 -49q-66 -182 -201 -283.5t-321 -101.5q-127 0 -235.5 52t-188.5 149.5t-126 234.5t-46 307zM436 -387l30 61q55 -23 102.5 -33t102.5 -10q63 0 100 23.5t37 64.5q0 39 -23.5 57.5t-59.5 18.5q-33 0 -59.5 -4t-61.5 -14l-23 82q41 14 79 20t83 6 q76 0 126 -36.5t50 -110.5q0 -49 -19.5 -83t-53 -54.5t-77.5 -29.5t-96 -9q-66 0 -119 11t-118 40z" />
<glyph unicode="&#xc8;" horiz-adv-x="1116" d="M182 0v1444h817v-113h-686v-524h564v-113h-564v-581h717v-113h-848zM297 1854h184l189 -306h-82z" />
<glyph unicode="&#xc9;" horiz-adv-x="1116" d="M182 0v1444h817v-113h-686v-524h564v-113h-564v-581h717v-113h-848zM454 1548l189 306h184l-291 -306h-82z" />
<glyph unicode="&#xca;" horiz-adv-x="1116" d="M182 0v1444h817v-113h-686v-524h564v-113h-564v-581h717v-113h-848zM266 1555l254 299h102l254 -299h-84l-223 178l-223 -178h-80z" />
<glyph unicode="&#xcb;" horiz-adv-x="1116" d="M182 0v1444h817v-113h-686v-524h564v-113h-564v-581h717v-113h-848zM326 1555v174h152v-174h-152zM690 1555v174h152v-174h-152z" />
<glyph unicode="&#xcc;" horiz-adv-x="544" d="M-57 1854h184l189 -306h-82zM207 0v1444h131v-1444h-131z" />
<glyph unicode="&#xcd;" horiz-adv-x="544" d="M207 0v1444h131v-1444h-131zM233 1548l189 306h184l-291 -306h-82z" />
<glyph unicode="&#xce;" horiz-adv-x="544" d="M-31 1555l254 299h102l254 -299h-84l-223 178l-223 -178h-80zM207 0v1444h131v-1444h-131z" />
<glyph unicode="&#xcf;" horiz-adv-x="544" d="M16 1555v174h152v-174h-152zM207 0v1444h131v-1444h-131zM380 1555v174h152v-174h-152z" />
<glyph unicode="&#xd1;" horiz-adv-x="1409" d="M182 0v1444h150l772 -1204v1204h123v-1444h-113l-809 1260v-1260h-123zM381 1555q-4 125 35 180t125 55q41 0 76.5 -17.5t82.5 -45.5q47 -29 80 -44.5t62 -15.5q61 0 61 119h92q4 -125 -35 -180.5t-125 -55.5q-41 0 -76.5 17.5t-82.5 46.5t-80 44t-62 15q-61 0 -61 -118 h-92z" />
<glyph unicode="&#xd2;" horiz-adv-x="1441" d="M115 723q0 168 46 305t128 234.5t192.5 149.5t239.5 52q131 0 241.5 -52t191.5 -149.5t127 -234.5t46 -307t-46 -306t-128 -233.5t-192.5 -149.5t-239.5 -52q-131 0 -241.5 52t-191.5 149.5t-127 234.5t-46 307zM250 723q0 -150 36 -267.5t98 -198.5t148 -123t189 -42 q102 0 188 43t149.5 124t98.5 198t35 264q0 150 -36 267.5t-98.5 198.5t-149.5 123t-187 42q-102 0 -188.5 -43t-150 -124t-98 -198t-34.5 -264zM430 1854h184l189 -306h-82z" />
<glyph unicode="&#xd3;" horiz-adv-x="1441" d="M115 723q0 168 46 305t128 234.5t192.5 149.5t239.5 52q131 0 241.5 -52t191.5 -149.5t127 -234.5t46 -307t-46 -306t-128 -233.5t-192.5 -149.5t-239.5 -52q-131 0 -241.5 52t-191.5 149.5t-127 234.5t-46 307zM250 723q0 -150 36 -267.5t98 -198.5t148 -123t189 -42 q102 0 188 43t149.5 124t98.5 198t35 264q0 150 -36 267.5t-98.5 198.5t-149.5 123t-187 42q-102 0 -188.5 -43t-150 -124t-98 -198t-34.5 -264zM639 1548l189 306h184l-291 -306h-82z" />
<glyph unicode="&#xd4;" horiz-adv-x="1441" d="M115 723q0 168 46 305t128 234.5t192.5 149.5t239.5 52q131 0 241.5 -52t191.5 -149.5t127 -234.5t46 -307t-46 -306t-128 -233.5t-192.5 -149.5t-239.5 -52q-131 0 -241.5 52t-191.5 149.5t-127 234.5t-46 307zM250 723q0 -150 36 -267.5t98 -198.5t148 -123t189 -42 q102 0 188 43t149.5 124t98.5 198t35 264q0 150 -36 267.5t-98.5 198.5t-149.5 123t-187 42q-102 0 -188.5 -43t-150 -124t-98 -198t-34.5 -264zM416 1555l254 299h102l254 -299h-84l-223 178l-223 -178h-80z" />
<glyph unicode="&#xd5;" horiz-adv-x="1441" d="M115 723q0 168 46 305t128 234.5t192.5 149.5t239.5 52q131 0 241.5 -52t191.5 -149.5t127 -234.5t46 -307t-46 -306t-128 -233.5t-192.5 -149.5t-239.5 -52q-131 0 -241.5 52t-191.5 149.5t-127 234.5t-46 307zM250 723q0 -150 36 -267.5t98 -198.5t148 -123t189 -42 q102 0 188 43t149.5 124t98.5 198t35 264q0 150 -36 267.5t-98.5 198.5t-149.5 123t-187 42q-102 0 -188.5 -43t-150 -124t-98 -198t-34.5 -264zM408 1555q-4 125 35 180t125 55q41 0 76.5 -17.5t82.5 -45.5q47 -29 80 -44.5t62 -15.5q61 0 61 119h92q4 -125 -35 -180.5 t-125 -55.5q-41 0 -76.5 17.5t-82.5 46.5t-80 44t-62 15q-61 0 -61 -118h-92z" />
<glyph unicode="&#xd6;" horiz-adv-x="1441" d="M115 723q0 168 46 305t128 234.5t192.5 149.5t239.5 52q131 0 241.5 -52t191.5 -149.5t127 -234.5t46 -307t-46 -306t-128 -233.5t-192.5 -149.5t-239.5 -52q-131 0 -241.5 52t-191.5 149.5t-127 234.5t-46 307zM250 723q0 -150 36 -267.5t98 -198.5t148 -123t189 -42 q102 0 188 43t149.5 124t98.5 198t35 264q0 150 -36 267.5t-98.5 198.5t-149.5 123t-187 42q-102 0 -188.5 -43t-150 -124t-98 -198t-34.5 -264zM463 1555v174h152v-174h-152zM827 1555v174h152v-174h-152z" />
<glyph unicode="&#xd7;" horiz-adv-x="1597" d="M41 705v34q154 20 264.5 52t190.5 86q-39 127 -144 262l23 22q137 -104 262 -143q53 84 86 197.5t55 269.5h41q20 -154 53 -267.5t86 -195.5q63 20 128 56t133 87l22 -22q-104 -137 -143 -264q80 -53 192.5 -85t265.5 -55v-34q-154 -20 -265 -53.5t-191 -86.5 q39 -125 145 -266l-22 -23q-137 102 -267 144q-53 -82 -83.5 -194.5t-53.5 -266.5h-41q-20 154 -51 265.5t-84 193.5q-123 -39 -264 -146l-23 23q53 72 89 137.5t55 130.5q-80 53 -192.5 86t-266.5 56z" />
<glyph unicode="&#xd9;" horiz-adv-x="1380" d="M166 481v963h131v-944q0 -90 23.5 -164t72.5 -127t124 -83t177 -30t176 29t121 81t69.5 123.5t22.5 157.5v957h131v-961q0 -102 -32.5 -192t-98 -159t-164 -108.5t-229.5 -39.5t-229.5 38.5t-164 106.5t-98 159t-32.5 193zM408 1854h184l189 -306h-82z" />
<glyph unicode="&#xda;" horiz-adv-x="1380" d="M166 481v963h131v-944q0 -90 23.5 -164t72.5 -127t124 -83t177 -30t176 29t121 81t69.5 123.5t22.5 157.5v957h131v-961q0 -102 -32.5 -192t-98 -159t-164 -108.5t-229.5 -39.5t-229.5 38.5t-164 106.5t-98 159t-32.5 193zM600 1548l189 306h184l-291 -306h-82z" />
<glyph unicode="&#xdb;" horiz-adv-x="1380" d="M166 481v963h131v-944q0 -90 23.5 -164t72.5 -127t124 -83t177 -30t176 29t121 81t69.5 123.5t22.5 157.5v957h131v-961q0 -102 -32.5 -192t-98 -159t-164 -108.5t-229.5 -39.5t-229.5 38.5t-164 106.5t-98 159t-32.5 193zM385 1555l254 299h102l254 -299h-84l-223 178 l-223 -178h-80z" />
<glyph unicode="&#xdc;" horiz-adv-x="1380" d="M166 481v963h131v-944q0 -90 23.5 -164t72.5 -127t124 -83t177 -30t176 29t121 81t69.5 123.5t22.5 157.5v957h131v-961q0 -102 -32.5 -192t-98 -159t-164 -108.5t-229.5 -39.5t-229.5 38.5t-164 106.5t-98 159t-32.5 193zM432 1555v174h152v-174h-152zM796 1555v174h152 v-174h-152z" />
<glyph unicode="&#xdd;" horiz-adv-x="1228" d="M43 1444h143l430 -707l431 707h139l-506 -819v-625h-131v625zM495 1548l189 306h184l-291 -306h-82z" />
<glyph unicode="&#xde;" horiz-adv-x="1208" d="M182 0v1444h131v-295h308q131 0 226 -31t156.5 -84t90 -129t28.5 -164q0 -193 -134 -304t-390 -111h-285v-326h-131zM313 434h297q174 0 275.5 70.5t101.5 232.5q0 160 -98 231.5t-281 71.5h-295v-606z" />
<glyph unicode="&#xe0;" horiz-adv-x="1105" d="M98 272q0 82 34 147.5t117 114t223 79t351 44.5v91q0 117 -58 167t-187 50q-117 0 -205 -29t-176 -76l-29 105q96 49 194.5 77.5t231.5 28.5q96 0 163.5 -21.5t109.5 -61.5t60.5 -96t18.5 -126v-766h-102l-17 141q-55 -43 -104 -73.5t-96 -49t-95.5 -26.5t-101.5 -8 q-66 0 -126 16t-106 52t-73 90.5t-27 129.5zM223 279q0 -98 60.5 -145.5t160.5 -47.5q55 0 103.5 9t93.5 28.5t89 48.5t93 66v331q-193 -12 -310.5 -39.5t-182 -65.5t-86 -85t-21.5 -100zM281 1516h184l189 -306h-82z" />
<glyph unicode="&#xe1;" horiz-adv-x="1105" d="M98 272q0 82 34 147.5t117 114t223 79t351 44.5v91q0 117 -58 167t-187 50q-117 0 -205 -29t-176 -76l-29 105q96 49 194.5 77.5t231.5 28.5q96 0 163.5 -21.5t109.5 -61.5t60.5 -96t18.5 -126v-766h-102l-17 141q-55 -43 -104 -73.5t-96 -49t-95.5 -26.5t-101.5 -8 q-66 0 -126 16t-106 52t-73 90.5t-27 129.5zM223 279q0 -98 60.5 -145.5t160.5 -47.5q55 0 103.5 9t93.5 28.5t89 48.5t93 66v331q-193 -12 -310.5 -39.5t-182 -65.5t-86 -85t-21.5 -100zM454 1210l189 306h184l-291 -306h-82z" />
<glyph unicode="&#xe2;" horiz-adv-x="1105" d="M98 272q0 82 34 147.5t117 114t223 79t351 44.5v91q0 117 -58 167t-187 50q-117 0 -205 -29t-176 -76l-29 105q96 49 194.5 77.5t231.5 28.5q96 0 163.5 -21.5t109.5 -61.5t60.5 -96t18.5 -126v-766h-102l-17 141q-55 -43 -104 -73.5t-96 -49t-95.5 -26.5t-101.5 -8 q-66 0 -126 16t-106 52t-73 90.5t-27 129.5zM223 279q0 -98 60.5 -145.5t160.5 -47.5q55 0 103.5 9t93.5 28.5t89 48.5t93 66v331q-193 -12 -310.5 -39.5t-182 -65.5t-86 -85t-21.5 -100zM244 1217l254 299h102l254 -299h-84l-223 178l-223 -178h-80z" />
<glyph unicode="&#xe3;" horiz-adv-x="1105" d="M98 272q0 82 34 147.5t117 114t223 79t351 44.5v91q0 117 -58 167t-187 50q-117 0 -205 -29t-176 -76l-29 105q96 49 194.5 77.5t231.5 28.5q96 0 163.5 -21.5t109.5 -61.5t60.5 -96t18.5 -126v-766h-102l-17 141q-55 -43 -104 -73.5t-96 -49t-95.5 -26.5t-101.5 -8 q-66 0 -126 16t-106 52t-73 90.5t-27 129.5zM223 279q0 -98 60.5 -145.5t160.5 -47.5q55 0 103.5 9t93.5 28.5t89 48.5t93 66v331q-193 -12 -310.5 -39.5t-182 -65.5t-86 -85t-21.5 -100zM240 1217q-4 125 35 180t125 55q41 0 76.5 -17.5t82.5 -45.5q47 -29 80 -44.5 t62 -15.5q61 0 61 119h92q4 -125 -35 -180.5t-125 -55.5q-41 0 -76.5 17.5t-82.5 46.5t-80 44t-62 15q-61 0 -61 -118h-92z" />
<glyph unicode="&#xe4;" horiz-adv-x="1105" d="M98 272q0 82 34 147.5t117 114t223 79t351 44.5v91q0 117 -58 167t-187 50q-117 0 -205 -29t-176 -76l-29 105q96 49 194.5 77.5t231.5 28.5q96 0 163.5 -21.5t109.5 -61.5t60.5 -96t18.5 -126v-766h-102l-17 141q-55 -43 -104 -73.5t-96 -49t-95.5 -26.5t-101.5 -8 q-66 0 -126 16t-106 52t-73 90.5t-27 129.5zM223 279q0 -98 60.5 -145.5t160.5 -47.5q55 0 103.5 9t93.5 28.5t89 48.5t93 66v331q-193 -12 -310.5 -39.5t-182 -65.5t-86 -85t-21.5 -100zM291 1217v174h152v-174h-152zM655 1217v174h152v-174h-152z" />
<glyph unicode="&#xe5;" horiz-adv-x="1105" d="M98 272q0 82 34 147.5t117 114t223 79t351 44.5v91q0 117 -58 167t-187 50q-117 0 -205 -29t-176 -76l-29 105q96 49 194.5 77.5t231.5 28.5q96 0 163.5 -21.5t109.5 -61.5t60.5 -96t18.5 -126v-766h-102l-17 141q-55 -43 -104 -73.5t-96 -49t-95.5 -26.5t-101.5 -8 q-66 0 -126 16t-106 52t-73 90.5t-27 129.5zM223 279q0 -98 60.5 -145.5t160.5 -47.5q55 0 103.5 9t93.5 28.5t89 48.5t93 66v331q-193 -12 -310.5 -39.5t-182 -65.5t-86 -85t-21.5 -100zM342 1417q0 90 58 149q58 58 149 58q90 0 148 -58q59 -59 59 -149t-59 -148 q-58 -58 -148 -59q-90 0 -149 59q-58 58 -58 148zM422 1417q0 -59 36 -96t91 -37t91 37t36 96t-36 96t-91 37t-91 -37t-36 -96z" />
<glyph unicode="&#xe7;" horiz-adv-x="1105" d="M100 526q0 115 35 215.5t99.5 174t153.5 116.5t198 43q86 0 150.5 -20.5t113.5 -57t86 -89t65 -115.5l-112 -45q-25 53 -52.5 94t-63.5 69.5t-81 43t-106 14.5q-84 0 -149.5 -34t-111.5 -94.5t-71 -140t-25 -172.5q0 -92 23.5 -173t70 -141t112 -94t151.5 -34 q121 0 190.5 53.5t122.5 155.5l107 -45q-63 -131 -168 -200.5t-252 -69.5q-109 0 -198 43t-153.5 116.5t-99.5 173t-35 213.5zM316 -387l30 61q55 -23 102.5 -33t102.5 -10q63 0 100 23.5t37 64.5q0 39 -23.5 57.5t-59.5 18.5q-33 0 -59.5 -4t-61.5 -14l-23 82q41 14 79 20 t83 6q76 0 126 -36.5t50 -110.5q0 -49 -19.5 -83t-53 -54.5t-77.5 -29.5t-96 -9q-66 0 -119 11t-118 40z" />
<glyph unicode="&#xe8;" horiz-adv-x="1126" d="M100 526q0 117 36 217.5t98.5 174t148.5 115.5t188 42q104 0 187.5 -39t141.5 -110.5t89 -174t31 -227.5v-15t-2 -15h-793q6 -92 35 -167t78 -128.5t116.5 -83t149.5 -29.5q100 0 181 29.5t163 95.5l60 -84q-98 -76 -192.5 -111.5t-217.5 -35.5q-109 0 -201 40.5 t-157.5 112.5t-102.5 172.5t-37 220.5zM227 588h668q-6 80 -27.5 150.5t-61.5 122.5t-97.5 83t-137.5 31q-76 0 -136 -28.5t-104 -81t-71 -123t-33 -154.5zM297 1516h184l189 -306h-82z" />
<glyph unicode="&#xe9;" horiz-adv-x="1126" d="M100 526q0 117 36 217.5t98.5 174t148.5 115.5t188 42q104 0 187.5 -39t141.5 -110.5t89 -174t31 -227.5v-15t-2 -15h-793q6 -92 35 -167t78 -128.5t116.5 -83t149.5 -29.5q100 0 181 29.5t163 95.5l60 -84q-98 -76 -192.5 -111.5t-217.5 -35.5q-109 0 -201 40.5 t-157.5 112.5t-102.5 172.5t-37 220.5zM227 588h668q-6 80 -27.5 150.5t-61.5 122.5t-97.5 83t-137.5 31q-76 0 -136 -28.5t-104 -81t-71 -123t-33 -154.5zM442 1210l189 306h184l-291 -306h-82z" />
<glyph unicode="&#xea;" horiz-adv-x="1126" d="M100 526q0 117 36 217.5t98.5 174t148.5 115.5t188 42q104 0 187.5 -39t141.5 -110.5t89 -174t31 -227.5v-15t-2 -15h-793q6 -92 35 -167t78 -128.5t116.5 -83t149.5 -29.5q100 0 181 29.5t163 95.5l60 -84q-98 -76 -192.5 -111.5t-217.5 -35.5q-109 0 -201 40.5 t-157.5 112.5t-102.5 172.5t-37 220.5zM227 588h668q-6 80 -27.5 150.5t-61.5 122.5t-97.5 83t-137.5 31q-76 0 -136 -28.5t-104 -81t-71 -123t-33 -154.5zM258 1217l254 299h102l254 -299h-84l-223 178l-223 -178h-80z" />
<glyph unicode="&#xeb;" horiz-adv-x="1126" d="M100 526q0 117 36 217.5t98.5 174t148.5 115.5t188 42q104 0 187.5 -39t141.5 -110.5t89 -174t31 -227.5v-15t-2 -15h-793q6 -92 35 -167t78 -128.5t116.5 -83t149.5 -29.5q100 0 181 29.5t163 95.5l60 -84q-98 -76 -192.5 -111.5t-217.5 -35.5q-109 0 -201 40.5 t-157.5 112.5t-102.5 172.5t-37 220.5zM227 588h668q-6 80 -27.5 150.5t-61.5 122.5t-97.5 83t-137.5 31q-76 0 -136 -28.5t-104 -81t-71 -123t-33 -154.5zM303 1217v174h152v-174h-152zM667 1217v174h152v-174h-152z" />
<glyph unicode="&#xec;" d="M-74 1516h184l189 -306h-82zM193 0v1053h126v-1053h-126z" />
<glyph unicode="&#xed;" d="M193 0v1053h126v-1053h-126zM217 1210l189 306h184l-291 -306h-82z" />
<glyph unicode="&#xee;" d="M-47 1217l254 299h102l254 -299h-84l-223 178l-223 -178h-80zM193 0v1053h126v-1053h-126z" />
<glyph unicode="&#xef;" d="M0 1217v174h152v-174h-152zM193 0v1053h126v-1053h-126zM364 1217v174h152v-174h-152z" />
<glyph unicode="&#xf1;" horiz-adv-x="1191" d="M170 0v1053h106l17 -146q82 76 172 119t205 43q186 0 274 -105.5t88 -277.5v-686h-127v662q0 154 -67.5 227.5t-196.5 73.5q-98 0 -177 -40t-167 -120v-803h-127zM293 1217q-4 125 35 180t125 55q41 0 76.5 -17.5t82.5 -45.5q47 -29 80 -44.5t62 -15.5q61 0 61 119h92 q4 -125 -35 -180.5t-125 -55.5q-41 0 -76.5 17.5t-82.5 46.5t-80 44t-62 15q-61 0 -61 -118h-92z" />
<glyph unicode="&#xf2;" horiz-adv-x="1191" d="M100 526q0 115 35 215.5t99.5 174t155.5 116.5t206 43q113 0 205 -43t156.5 -116.5t99.5 -174t35 -213.5q0 -115 -35 -215t-99.5 -173.5t-156.5 -116.5t-205 -43q-115 0 -206 43t-155.5 116.5t-99.5 173t-35 213.5zM229 528q0 -92 23.5 -173t70 -141t115 -94t158.5 -34 q88 0 156.5 34t114.5 94t71 140t25 172t-24 173t-70 141.5t-114.5 94.5t-158.5 34q-88 0 -156.5 -34t-114.5 -94.5t-71 -140t-25 -172.5zM303 1516h184l189 -306h-82z" />
<glyph unicode="&#xf3;" horiz-adv-x="1191" d="M100 526q0 115 35 215.5t99.5 174t155.5 116.5t206 43q113 0 205 -43t156.5 -116.5t99.5 -174t35 -213.5q0 -115 -35 -215t-99.5 -173.5t-156.5 -116.5t-205 -43q-115 0 -206 43t-155.5 116.5t-99.5 173t-35 213.5zM229 528q0 -92 23.5 -173t70 -141t115 -94t158.5 -34 q88 0 156.5 34t114.5 94t71 140t25 172t-24 173t-70 141.5t-114.5 94.5t-158.5 34q-88 0 -156.5 -34t-114.5 -94.5t-71 -140t-25 -172.5zM516 1210l189 306h184l-291 -306h-82z" />
<glyph unicode="&#xf4;" horiz-adv-x="1191" d="M100 526q0 115 35 215.5t99.5 174t155.5 116.5t206 43q113 0 205 -43t156.5 -116.5t99.5 -174t35 -213.5q0 -115 -35 -215t-99.5 -173.5t-156.5 -116.5t-205 -43q-115 0 -206 43t-155.5 116.5t-99.5 173t-35 213.5zM229 528q0 -92 23.5 -173t70 -141t115 -94t158.5 -34 q88 0 156.5 34t114.5 94t71 140t25 172t-24 173t-70 141.5t-114.5 94.5t-158.5 34q-88 0 -156.5 -34t-114.5 -94.5t-71 -140t-25 -172.5zM291 1217l254 299h102l254 -299h-84l-223 178l-223 -178h-80z" />
<glyph unicode="&#xf5;" horiz-adv-x="1191" d="M100 526q0 115 35 215.5t99.5 174t155.5 116.5t206 43q113 0 205 -43t156.5 -116.5t99.5 -174t35 -213.5q0 -115 -35 -215t-99.5 -173.5t-156.5 -116.5t-205 -43q-115 0 -206 43t-155.5 116.5t-99.5 173t-35 213.5zM229 528q0 -92 23.5 -173t70 -141t115 -94t158.5 -34 q88 0 156.5 34t114.5 94t71 140t25 172t-24 173t-70 141.5t-114.5 94.5t-158.5 34q-88 0 -156.5 -34t-114.5 -94.5t-71 -140t-25 -172.5zM281 1217q-4 125 35 180t125 55q41 0 76.5 -17.5t82.5 -45.5q47 -29 80 -44.5t62 -15.5q61 0 61 119h92q4 -125 -35 -180.5t-125 -55.5 q-41 0 -76.5 17.5t-82.5 46.5t-80 44t-62 15q-61 0 -61 -118h-92z" />
<glyph unicode="&#xf6;" horiz-adv-x="1191" d="M100 526q0 115 35 215.5t99.5 174t155.5 116.5t206 43q113 0 205 -43t156.5 -116.5t99.5 -174t35 -213.5q0 -115 -35 -215t-99.5 -173.5t-156.5 -116.5t-205 -43q-115 0 -206 43t-155.5 116.5t-99.5 173t-35 213.5zM229 528q0 -92 23.5 -173t70 -141t115 -94t158.5 -34 q88 0 156.5 34t114.5 94t71 140t25 172t-24 173t-70 141.5t-114.5 94.5t-158.5 34q-88 0 -156.5 -34t-114.5 -94.5t-71 -140t-25 -172.5zM338 1217v174h152v-174h-152zM702 1217v174h152v-174h-152z" />
<glyph unicode="&#xf7;" horiz-adv-x="1290" d="M139 666v106h1012v-106h-1012zM571 240v174h148v-174h-148zM571 1024v174h148v-174h-148z" />
<glyph unicode="&#xf9;" horiz-adv-x="1191" d="M160 367v686h127v-662q0 -154 67.5 -227.5t196.5 -73.5q98 0 177 40t167 120v803h127v-1053h-107l-16 145q-82 -76 -172 -118.5t-205 -42.5q-188 0 -275 105.5t-87 277.5zM291 1516h184l189 -306h-82z" />
<glyph unicode="&#xfa;" horiz-adv-x="1191" d="M160 367v686h127v-662q0 -154 67.5 -227.5t196.5 -73.5q98 0 177 40t167 120v803h127v-1053h-107l-16 145q-82 -76 -172 -118.5t-205 -42.5q-188 0 -275 105.5t-87 277.5zM526 1210l189 306h184l-291 -306h-82z" />
<glyph unicode="&#xfb;" horiz-adv-x="1191" d="M160 367v686h127v-662q0 -154 67.5 -227.5t196.5 -73.5q98 0 177 40t167 120v803h127v-1053h-107l-16 145q-82 -76 -172 -118.5t-205 -42.5q-188 0 -275 105.5t-87 277.5zM285 1217l254 299h102l254 -299h-84l-223 178l-223 -178h-80z" />
<glyph unicode="&#xfc;" horiz-adv-x="1191" d="M160 367v686h127v-662q0 -154 67.5 -227.5t196.5 -73.5q98 0 177 40t167 120v803h127v-1053h-107l-16 145q-82 -76 -172 -118.5t-205 -42.5q-188 0 -275 105.5t-87 277.5zM332 1217v174h152v-174h-152zM696 1217v174h152v-174h-152z" />
<glyph unicode="&#xfd;" horiz-adv-x="1085" d="M59 1053h136l350 -916l348 916h133l-444 -1106q-63 -158 -146.5 -221.5t-202.5 -63.5q-41 0 -67.5 3t-54.5 9v105q33 -6 61.5 -9t67.5 -3q90 0 143 51t100 180zM438 1210l189 306h184l-291 -306h-82z" />
<glyph unicode="&#xfe;" horiz-adv-x="1204" d="M170 -330v1805h127v-566q80 76 163 118t187 42q100 0 183 -37t142.5 -106.5t92.5 -170t33 -227.5q0 -131 -38 -232t-103.5 -170t-152.5 -104.5t-186 -35.5q-94 0 -175 35.5t-146 99.5v-451h-127zM297 250q72 -76 150.5 -117t179.5 -41q74 0 136 27.5t108.5 82t72 135 t25.5 189.5q0 106 -27 188.5t-73 137.5t-106.5 83t-129.5 28q-102 0 -180 -45.5t-156 -116.5v-551z" />
<glyph unicode="&#xff;" horiz-adv-x="1085" d="M59 1053h136l350 -916l348 916h133l-444 -1106q-63 -158 -146.5 -221.5t-202.5 -63.5q-41 0 -67.5 3t-54.5 9v105q33 -6 61.5 -9t67.5 -3q90 0 143 51t100 180zM283 1217v174h152v-174h-152zM647 1217v174h152v-174h-152z" />
<glyph unicode="&#x178;" horiz-adv-x="1228" d="M43 1444h143l430 -707l431 707h139l-506 -819v-625h-131v625zM356 1555v174h152v-174h-152zM720 1555v174h152v-174h-152z" />
<glyph unicode="&#x2c6;" horiz-adv-x="1024" d="M207 1217l254 299h102l254 -299h-84l-223 178l-223 -178h-80z" />
<glyph unicode="&#x2dc;" horiz-adv-x="1024" d="M205 1217q-4 125 35 180t125 55q41 0 76.5 -17.5t82.5 -45.5q47 -29 80 -44.5t62 -15.5q61 0 61 119h92q4 -125 -35 -180.5t-125 -55.5q-41 0 -76.5 17.5t-82.5 46.5t-80 44t-62 15q-61 0 -61 -118h-92z" />
<glyph unicode="&#x2000;" horiz-adv-x="927" />
<glyph unicode="&#x2001;" horiz-adv-x="1854" />
<glyph unicode="&#x2002;" horiz-adv-x="927" />
<glyph unicode="&#x2003;" horiz-adv-x="1854" />
<glyph unicode="&#x2004;" horiz-adv-x="618" />
<glyph unicode="&#x2005;" horiz-adv-x="463" />
<glyph unicode="&#x2006;" horiz-adv-x="309" />
<glyph unicode="&#x2007;" horiz-adv-x="309" />
<glyph unicode="&#x2008;" horiz-adv-x="231" />
<glyph unicode="&#x2009;" horiz-adv-x="370" />
<glyph unicode="&#x200a;" horiz-adv-x="103" />
<glyph unicode="&#x2010;" horiz-adv-x="675" d="M141 537v120h394v-120h-394z" />
<glyph unicode="&#x2011;" horiz-adv-x="675" d="M141 537v120h394v-120h-394z" />
<glyph unicode="&#x2012;" horiz-adv-x="675" d="M141 537v120h394v-120h-394z" />
<glyph unicode="&#x2013;" horiz-adv-x="1024" d="M141 537v120h742v-120h-742z" />
<glyph unicode="&#x2014;" horiz-adv-x="2048" d="M141 539v116h1766v-116h-1766z" />
<glyph unicode="&#x2018;" d="M178 1077v158l84 213h74l-62 -193h60v-178h-156z" />
<glyph unicode="&#x2019;" d="M176 1073l62 193h-60v178h156v-158l-84 -213h-74z" />
<glyph unicode="&#x201a;" d="M176 -193l62 193h-60v178h156v-158l-84 -213h-74z" />
<glyph unicode="&#x201c;" horiz-adv-x="870" d="M178 1077v158l84 213h74l-62 -193h60v-178h-156zM537 1077v158l84 213h73l-61 -193h59v-178h-155z" />
<glyph unicode="&#x201d;" horiz-adv-x="870" d="M176 1073l62 193h-60v178h156v-158l-84 -213h-74zM535 1073l61 193h-59v178h155v-158l-84 -213h-73z" />
<glyph unicode="&#x201e;" horiz-adv-x="870" d="M176 -193l62 193h-60v178h156v-158l-84 -213h-74zM535 -193l61 193h-59v178h155v-158l-84 -213h-73z" />
<glyph unicode="&#x2022;" horiz-adv-x="901" d="M219 737q0 49 17.5 91t49 74t73.5 49.5t92 17.5q49 0 91 -17.5t73.5 -49.5t49 -74t17.5 -91t-17.5 -91t-49 -73.5t-73.5 -49t-91 -17.5t-91.5 17.5t-74 49t-49 73.5t-17.5 91z" />
<glyph unicode="&#x2026;" horiz-adv-x="1638" d="M188 0v178h156v-178h-156zM741 0v178h156v-178h-156zM1294 0v178h156v-178h-156z" />
<glyph unicode="&#x202f;" horiz-adv-x="370" />
<glyph unicode="&#x2039;" horiz-adv-x="696" d="M115 526l336 527h129l-330 -527l330 -526h-129z" />
<glyph unicode="&#x203a;" horiz-adv-x="696" d="M117 0l329 526l-329 527h129l336 -527l-336 -526h-129z" />
<glyph unicode="&#x205f;" horiz-adv-x="463" />
<glyph unicode="&#x25fc;" horiz-adv-x="1054" d="M0 0v1055h1055v-1055h-1055z" />
<glyph unicode="&#xfb01;" horiz-adv-x="1269" d="M76 950v103h194v161q0 268 287 269q55 0 98 -6.5t76 -14.5l-10 -108q-41 10 -82 16t-88 6q-76 0 -117 -35.5t-41 -117.5v-170h297v-103h-297v-950h-123v950h-194zM944 1311v164h139v-164h-139zM950 0v1053h127v-1053h-127z" />
<glyph unicode="&#xfb02;" horiz-adv-x="1269" d="M76 950v103h194v161q0 268 287 269q55 0 98 -6.5t76 -14.5l-10 -108q-41 10 -82 16t-88 6q-76 0 -117 -35.5t-41 -117.5v-170h297v-103h-297v-950h-123v950h-194zM950 0v1475h127v-1475h-127z" />
</font>
</defs>
</svg>
